<?xml version="1.0" standalone="no"?>
<!DOCTYPE svg PUBLIC "-//W3C//DTD SVG 20010904//EN"
 "http://www.w3.org/TR/2001/REC-SVG-20010904/DTD/svg10.dtd">
<svg version="1.0" xmlns="http://www.w3.org/2000/svg"
 width="50.000000pt" height="50.000000pt" viewBox="0 0 50.000000 50.000000"
 preserveAspectRatio="xMidYMid meet">
<metadata>
Created by potrace 1.15, written by Peter Selinger 2001-2017
</metadata>
<g transform="translate(0.000000,50.000000) scale(0.100000,-0.100000)"
fill="#000000" stroke="none">
<path d="M33 402 c-11 -7 -16 -56 -29 -299 l-5 -103 35 0 c30 0 35 3 38 28 l3
27 173 3 172 2 0 -30 c0 -28 2 -30 41 -30 l41 0 -6 103 c-4 56 -9 142 -12 192
-4 67 -9 93 -21 103 -19 13 -409 18 -430 4z m417 -82 c0 -33 -4 -60 -10 -60
-5 0 -10 13 -10 29 0 17 -5 33 -12 37 -6 4 -82 8 -169 8 -168 0 -189 -5 -189
-50 0 -12 -5 -26 -10 -29 -11 -7 -14 107 -3 118 3 4 96 7 205 7 l198 0 0 -60z
m-35 -86 c18 -8 37 -26 44 -40 25 -55 29 -54 -209 -54 l-220 0 0 25 c0 36 40
72 86 80 22 3 46 8 54 10 35 9 214 -6 245 -21z"/>
</g>
</svg>
