<?xml version="1.0" standalone="no"?>
<!DOCTYPE svg PUBLIC "-//W3C//DTD SVG 20010904//EN"
 "http://www.w3.org/TR/2001/REC-SVG-20010904/DTD/svg10.dtd">
<svg version="1.0" xmlns="http://www.w3.org/2000/svg"
 width="80.000000pt" height="80.000000pt" viewBox="0 0 80.000000 80.000000"
 preserveAspectRatio="xMidYMid meet">
<metadata>
Created by potrace 1.15, written by Peter Selinger 2001-2017
</metadata>
<g transform="translate(0.000000,80.000000) scale(0.100000,-0.100000)"
fill="#000000" stroke="none">
<path d="M505 664 c-24 -70 -84 -155 -128 -183 -38 -23 -54 -25 -192 -16 -90
6 -103 4 -132 -14 -23 -14 -33 -28 -33 -46 0 -25 32 -51 50 -40 6 4 10 -39 10
-117 0 -68 4 -129 9 -137 7 -11 33 -12 147 -5 134 9 139 10 142 32 5 32 -15
52 -49 52 -16 0 -29 3 -29 8 0 4 40 6 90 4 l90 -3 0 -33 c0 -48 17 -57 102
-54 72 3 73 3 76 31 3 24 -2 30 -27 40 -17 6 -31 17 -31 25 0 7 19 30 41 52
l41 39 -4 70 -4 69 30 6 c57 12 76 32 76 80 0 43 -1 44 -45 56 -24 7 -50 18
-56 26 -6 7 -26 18 -45 24 -23 8 -41 24 -56 51 -31 55 -50 51 -73 -17z m102
-59 c15 -3 38 -14 52 -24 14 -10 43 -24 64 -30 42 -14 44 -20 20 -50 -13 -16
-37 -25 -88 -32 -82 -12 -119 -28 -123 -52 -4 -21 21 -23 38 -2 7 8 25 15 40
15 31 0 40 -18 40 -83 0 -40 -34 -87 -65 -87 -11 0 -15 -12 -15 -49 0 -46 2
-50 25 -53 14 -2 27 -7 28 -13 3 -13 -37 -18 -79 -10 -30 5 -35 10 -40 44 l-6
38 -82 6 c-44 4 -96 12 -113 19 -29 11 -33 17 -33 51 0 45 -20 47 -31 4 -4
-15 -21 -43 -38 -63 -36 -41 -39 -69 -10 -85 30 -16 10 -31 -37 -27 -31 2 -40
8 -45 28 -11 40 -10 228 1 235 24 15 9 27 -25 21 -48 -9 -44 8 6 28 34 14 51
15 97 6 99 -18 163 -13 207 16 51 33 106 105 129 168 l19 48 19 -30 c10 -16
31 -33 45 -37z"/>
</g>
</svg>
