<?xml version="1.0" standalone="no"?>
<!DOCTYPE svg PUBLIC "-//W3C//DTD SVG 20010904//EN"
 "http://www.w3.org/TR/2001/REC-SVG-20010904/DTD/svg10.dtd">
<svg version="1.0" xmlns="http://www.w3.org/2000/svg"
 width="80.000000pt" height="80.000000pt" viewBox="0 0 80.000000 80.000000"
 preserveAspectRatio="xMidYMid meet">
<metadata>
Created by potrace 1.15, written by Peter Selinger 2001-2017
</metadata>
<g transform="translate(0.000000,80.000000) scale(0.100000,-0.100000)"
fill="#000000" stroke="none">
<path d="M155 675 c-23 -22 -25 -31 -25 -128 0 -96 -2 -105 -20 -110 -28 -7
-27 -53 3 -68 31 -17 37 -28 37 -77 0 -49 11 -75 47 -114 l25 -26 -21 -14
c-11 -7 -21 -16 -21 -20 0 -14 47 -8 60 7 10 12 41 15 160 15 119 0 150 -3
160 -15 13 -15 60 -21 60 -7 0 4 -10 13 -21 20 l-21 14 25 26 c36 39 47 65 47
114 0 49 6 60 38 77 17 9 22 19 20 39 l-3 27 -278 3 -279 2 4 95 c3 106 16
129 76 141 31 6 32 5 32 -25 l0 -31 60 0 c59 0 60 0 60 28 0 45 -16 52 -112
52 -81 0 -91 -2 -113 -25z m515 -270 c1 -5 -8 -11 -18 -13 -16 -3 -20 -15 -25
-70 -7 -70 -22 -100 -71 -136 -24 -19 -42 -21 -156 -21 -114 0 -132 2 -156 21
-49 36 -64 66 -71 137 -5 55 -9 67 -24 67 -20 0 -32 13 -22 24 11 11 543 2
543 -9z"/>
</g>
</svg>
