<?xml version="1.0" standalone="no"?>
<!DOCTYPE svg PUBLIC "-//W3C//DTD SVG 20010904//EN"
 "http://www.w3.org/TR/2001/REC-SVG-20010904/DTD/svg10.dtd">
<svg version="1.0" xmlns="http://www.w3.org/2000/svg"
 width="50.000000pt" height="50.000000pt" viewBox="0 0 50.000000 50.000000"
 preserveAspectRatio="xMidYMid meet">
<metadata>
Created by potrace 1.15, written by Peter Selinger 2001-2017
</metadata>
<g transform="translate(0.000000,50.000000) scale(0.100000,-0.100000)"
fill="#000000" stroke="none">
<path d="M191 474 c-26 -33 -26 -54 -1 -87 l20 -26 -20 -6 c-28 -9 -46 -39
-64 -112 -18 -71 -14 -93 20 -93 23 0 24 -3 24 -64 0 -67 13 -91 47 -84 14 2
19 16 23 68 l6 65 4 -59 c5 -62 22 -85 54 -73 13 5 16 21 16 80 l0 73 28 -1
c25 0 27 3 26 35 -1 19 -9 61 -18 93 -13 44 -23 60 -42 67 -24 9 -24 11 -10
32 22 30 20 81 -2 101 -30 27 -87 22 -111 -9z"/>
</g>
</svg>
