<?xml version="1.0" standalone="no"?>
<!DOCTYPE svg PUBLIC "-//W3C//DTD SVG 20010904//EN"
 "http://www.w3.org/TR/2001/REC-SVG-20010904/DTD/svg10.dtd">
<svg version="1.0" xmlns="http://www.w3.org/2000/svg"
 width="50.000000pt" height="50.000000pt" viewBox="0 0 50.000000 50.000000"
 preserveAspectRatio="xMidYMid meet">
<metadata>
Created by potrace 1.15, written by Peter Selinger 2001-2017
</metadata>
<g transform="translate(0.000000,50.000000) scale(0.100000,-0.100000)"
fill="#000000" stroke="none">
<path d="M52 317 c-29 -29 -52 -57 -52 -62 0 -14 113 -125 127 -125 23 0 14
19 -28 65 l-42 45 194 0 193 0 -42 -43 c-23 -23 -42 -48 -42 -55 0 -25 28 -10
85 48 l59 60 -59 60 c-57 58 -85 73 -85 48 0 -7 17 -29 37 -50 l37 -38 -189 0
-189 0 42 43 c46 47 51 57 24 57 -10 0 -41 -24 -70 -53z"/>
</g>
</svg>
